<svg width="211" height="37" viewBox="0 0 211 37" fill="none" xmlns="http://www.w3.org/2000/svg">
<path d="M23.672 24.248C23.912 25.016 24.32 25.616 24.896 26.048C25.472 26.48 26.084 26.696 26.732 26.696C26.732 27.128 26.66 27.548 26.516 27.956C26.372 28.364 26.168 28.712 25.904 29H16.148C15.884 28.712 15.68 28.364 15.536 27.956C15.392 27.548 15.32 27.128 15.32 26.696C16.688 26.696 17.372 26.12 17.372 24.968C17.372 24.488 17.288 23.924 17.12 23.276L16.904 22.52H8.84L8.624 23.276C8.408 24.02 8.3 24.548 8.3 24.86C8.3 26.084 9.068 26.696 10.604 26.696C10.604 27.128 10.532 27.548 10.388 27.956C10.244 28.364 10.04 28.712 9.776 29H1.748C1.484 28.712 1.28 28.364 1.136 27.956C0.992 27.548 0.92 27.128 0.92 26.696C1.592 26.696 2.204 26.504 2.756 26.12C3.308 25.712 3.716 25.124 3.98 24.356L9.884 6.932C8.924 6.62 7.712 6.464 6.248 6.464C6.248 5.432 6.536 4.568 7.112 3.872H16.976L23.672 24.248ZM16.112 19.712L13.556 10.784C13.34 10.064 13.064 9.452 12.728 8.948L9.632 19.712H16.112ZM40.3065 11.9C40.0905 10.292 39.6465 9.008 38.9745 8.048C38.3265 7.088 37.4865 6.608 36.4545 6.608C34.9905 6.608 33.8265 7.304 32.9625 8.696C32.0985 10.064 31.6665 12.188 31.6665 15.068C31.6665 18.548 32.3385 21.092 33.6825 22.7C35.0265 24.308 36.7665 25.112 38.9025 25.112C39.9345 25.112 40.8465 24.92 41.6385 24.536C42.4305 24.152 42.9945 23.696 43.3305 23.168C43.6185 23.384 43.8585 23.708 44.0505 24.14C44.2425 24.572 44.3385 24.968 44.3385 25.328C44.3385 25.928 44.0265 26.552 43.4025 27.2C42.8025 27.848 41.9265 28.4 40.7745 28.856C39.6225 29.288 38.2905 29.504 36.7785 29.504C34.6665 29.504 32.7345 29.012 30.9825 28.028C29.2545 27.044 27.8745 25.556 26.8425 23.564C25.8105 21.572 25.2945 19.16 25.2945 16.328C25.2945 13.568 25.7625 11.228 26.6985 9.308C27.6345 7.364 28.9425 5.912 30.6225 4.952C32.3265 3.968 34.3065 3.476 36.5625 3.476C37.0905 3.476 37.6905 3.548 38.3625 3.692C39.0345 3.836 39.6225 4.028 40.1265 4.268C40.4865 4.1 41.0145 3.932 41.7105 3.764C42.4065 3.596 42.9465 3.5 43.3305 3.476C44.0265 5.18 44.3745 7.988 44.3745 11.9H40.3065ZM83.1058 29.396C82.5538 29.396 81.8818 29.36 81.0898 29.288C78.5218 29.096 76.2658 29 74.3218 29C73.7938 28.328 73.5298 27.56 73.5298 26.696C74.3218 26.696 74.8858 26.564 75.2218 26.3C75.5818 26.012 75.7618 25.532 75.7618 24.86V7.94C75.7618 7.292 75.5818 6.836 75.2218 6.572C74.8858 6.284 74.3218 6.14 73.5298 6.14C73.5298 5.228 73.7938 4.472 74.3218 3.872C76.1458 3.872 77.7898 3.824 79.2538 3.728C80.7178 3.632 81.5818 3.572 81.8457 3.548C82.6618 3.476 83.2498 3.44 83.6098 3.44C86.2738 3.44 88.5058 3.992 90.3058 5.096C92.1298 6.2 93.4738 7.7 94.3378 9.596C95.2258 11.468 95.6698 13.568 95.6698 15.896C95.6698 18.464 95.2138 20.768 94.3018 22.808C93.4138 24.824 92.0338 26.432 90.1618 27.632C88.2898 28.808 85.9378 29.396 83.1058 29.396ZM82.8178 26.408C84.8818 26.408 86.4658 25.628 87.5698 24.068C88.6978 22.484 89.2618 19.94 89.2618 16.436C89.2618 13.052 88.6618 10.52 87.4618 8.84C86.2858 7.16 84.6418 6.32 82.5298 6.32C82.1218 6.32 81.8338 6.344 81.6658 6.392V26.336C81.9058 26.384 82.2898 26.408 82.8178 26.408ZM108.161 25.328C109.673 25.328 111.077 24.848 112.373 23.888C112.565 24.08 112.733 24.368 112.877 24.752C113.021 25.136 113.093 25.472 113.093 25.76C113.093 26.192 112.805 26.696 112.229 27.272C111.653 27.824 110.849 28.304 109.817 28.712C108.809 29.12 107.669 29.324 106.397 29.324C104.621 29.324 103.061 28.94 101.717 28.172C100.397 27.404 99.3766 26.288 98.6566 24.824C97.9366 23.36 97.5766 21.632 97.5766 19.64C97.5766 17.6 97.9606 15.812 98.7286 14.276C99.5206 12.74 100.601 11.564 101.969 10.748C103.337 9.908 104.885 9.488 106.613 9.488C108.797 9.488 110.537 10.124 111.833 11.396C113.129 12.668 113.777 14.432 113.777 16.688C113.777 17.744 113.609 18.584 113.273 19.208C112.937 19.808 112.337 20.108 111.473 20.108H103.697C103.841 23.588 105.329 25.328 108.161 25.328ZM106.397 11.972C105.653 11.972 105.029 12.392 104.525 13.232C104.021 14.048 103.745 15.428 103.697 17.372H107.333C107.717 17.372 107.969 17.24 108.089 16.976C108.209 16.712 108.269 16.304 108.269 15.752C108.269 14.336 108.101 13.352 107.765 12.8C107.429 12.248 106.973 11.972 106.397 11.972ZM117.735 5.96C117.735 5.36 117.555 4.916 117.195 4.628C116.859 4.316 116.223 4.16 115.287 4.16V2.72C116.151 2.24 117.243 1.832 118.563 1.496C119.883 1.16 120.951 0.991998 121.767 0.991998C122.343 0.991998 122.751 1.112 122.991 1.352C123.231 1.592 123.351 2.012 123.351 2.612V25.076C123.351 25.82 123.495 26.336 123.783 26.624C124.095 26.912 124.611 27.056 125.331 27.056C125.331 27.728 125.043 28.376 124.467 29H116.583C116.031 28.4 115.755 27.752 115.755 27.056C116.451 27.056 116.955 26.912 117.267 26.624C117.579 26.312 117.735 25.796 117.735 25.076V5.96ZM135.423 3.548C135.423 4.58 135.099 5.408 134.451 6.032C133.827 6.632 132.987 6.932 131.931 6.932C130.899 6.932 130.071 6.632 129.447 6.032C128.847 5.408 128.547 4.58 128.547 3.548C128.547 2.54 128.859 1.724 129.483 1.1C130.131 0.475998 130.971 0.163998 132.003 0.163998C133.035 0.163998 133.863 0.475998 134.487 1.1C135.111 1.724 135.423 2.54 135.423 3.548ZM134.739 25.112C134.739 25.808 134.907 26.312 135.243 26.624C135.603 26.912 136.143 27.056 136.863 27.056C136.863 27.8 136.587 28.448 136.035 29H127.899C127.347 28.448 127.071 27.8 127.071 27.056C127.791 27.056 128.307 26.912 128.619 26.624C128.955 26.312 129.123 25.796 129.123 25.076V14.636C129.123 13.964 128.955 13.484 128.619 13.196C128.307 12.908 127.683 12.764 126.747 12.764V11.18C127.323 10.82 128.295 10.448 129.663 10.064C131.055 9.656 132.231 9.452 133.191 9.452C133.743 9.452 134.139 9.584 134.379 9.848C134.619 10.088 134.739 10.508 134.739 11.108V25.112ZM146.098 19.316L147.754 25.616L149.41 19.316L150.814 14.42C150.91 14.036 150.958 13.748 150.958 13.556C150.958 13.052 150.79 12.68 150.454 12.44C150.142 12.176 149.686 12.044 149.086 12.044C149.086 11.06 149.314 10.34 149.77 9.884H156.754C157.234 10.364 157.474 11.084 157.474 12.044C156.874 12.044 156.418 12.188 156.106 12.476C155.794 12.764 155.53 13.244 155.314 13.916L151.57 25.4C151.162 26.816 150.706 27.812 150.202 28.388C149.698 28.964 148.93 29.252 147.898 29.252H144.154L138.466 13.916C138.202 13.22 137.938 12.74 137.674 12.476C137.41 12.188 136.978 12.044 136.378 12.044C136.378 11.108 136.63 10.388 137.134 9.884H145.342C145.606 10.148 145.81 10.484 145.954 10.892C146.098 11.276 146.17 11.66 146.17 12.044C145.666 12.044 145.258 12.188 144.946 12.476C144.634 12.74 144.478 13.136 144.478 13.664C144.478 13.832 144.526 14.084 144.622 14.42L146.098 19.316ZM167.961 25.328C169.473 25.328 170.877 24.848 172.173 23.888C172.365 24.08 172.533 24.368 172.677 24.752C172.821 25.136 172.893 25.472 172.893 25.76C172.893 26.192 172.605 26.696 172.029 27.272C171.453 27.824 170.649 28.304 169.617 28.712C168.609 29.12 167.469 29.324 166.197 29.324C164.421 29.324 162.861 28.94 161.517 28.172C160.197 27.404 159.177 26.288 158.457 24.824C157.737 23.36 157.377 21.632 157.377 19.64C157.377 17.6 157.761 15.812 158.529 14.276C159.321 12.74 160.401 11.564 161.769 10.748C163.137 9.908 164.685 9.488 166.413 9.488C168.597 9.488 170.337 10.124 171.633 11.396C172.929 12.668 173.577 14.432 173.577 16.688C173.577 17.744 173.409 18.584 173.073 19.208C172.737 19.808 172.137 20.108 171.273 20.108H163.497C163.641 23.588 165.129 25.328 167.961 25.328ZM166.197 11.972C165.453 11.972 164.829 12.392 164.325 13.232C163.821 14.048 163.545 15.428 163.497 17.372H167.133C167.517 17.372 167.769 17.24 167.889 16.976C168.009 16.712 168.069 16.304 168.069 15.752C168.069 14.336 167.901 13.352 167.565 12.8C167.229 12.248 166.773 11.972 166.197 11.972ZM187.76 9.452C188.84 9.452 189.632 9.728 190.136 10.28C190.64 10.832 190.892 11.588 190.892 12.548C190.892 13.58 190.616 14.42 190.064 15.068C189.536 15.716 188.816 16.04 187.904 16.04C187.112 16.04 186.464 15.812 185.96 15.356C185.48 14.9 185.24 14.36 185.24 13.736C185.24 13.352 185.276 13.052 185.348 12.836C184.484 13.052 183.752 13.424 183.152 13.952V24.752C183.152 25.352 183.236 25.808 183.404 26.12C183.572 26.432 183.896 26.672 184.376 26.84C184.88 26.984 185.624 27.056 186.608 27.056C186.608 27.488 186.56 27.86 186.464 28.172C186.368 28.46 186.188 28.736 185.924 29H176.312C175.76 28.448 175.484 27.8 175.484 27.056C176.18 27.056 176.672 26.912 176.96 26.624C177.272 26.312 177.428 25.796 177.428 25.076V14.672C177.428 14.024 177.248 13.568 176.888 13.304C176.552 13.04 175.94 12.908 175.052 12.908V11.288C175.844 10.832 176.888 10.436 178.184 10.1C179.504 9.74 180.524 9.56 181.244 9.56C181.82 9.56 182.228 9.764 182.468 10.172C182.708 10.58 182.828 11.396 182.828 12.62C183.26 11.804 183.944 11.072 184.88 10.424C185.816 9.776 186.776 9.452 187.76 9.452ZM210.159 9.884C210.639 10.388 210.879 11.12 210.879 12.08C210.303 12.08 209.847 12.224 209.511 12.512C209.175 12.8 208.899 13.28 208.683 13.952L204.579 26.732C203.499 30.236 202.347 32.756 201.123 34.292C199.899 35.828 198.363 36.596 196.515 36.596C195.075 36.596 193.971 36.296 193.203 35.696C192.435 35.096 192.051 34.34 192.051 33.428C192.051 32.852 192.183 32.336 192.447 31.88C192.735 31.424 193.095 31.1 193.527 30.908C194.175 31.676 195.135 32.06 196.407 32.06C197.175 32.06 197.931 31.688 198.675 30.944C199.419 30.2 200.031 29.108 200.511 27.668H197.559L192.015 14.204C191.967 14.06 191.847 13.76 191.655 13.304C191.463 12.848 191.223 12.536 190.935 12.368C190.647 12.176 190.275 12.08 189.819 12.08C189.819 11.144 190.071 10.412 190.575 9.884H199.071C199.647 10.508 199.935 11.24 199.935 12.08C198.831 12.08 198.279 12.632 198.279 13.736C198.279 14.168 198.339 14.564 198.459 14.924L201.807 24.68L204.183 14.456C204.255 14.12 204.291 13.832 204.291 13.592C204.291 12.584 203.703 12.08 202.527 12.08C202.527 11.096 202.755 10.364 203.211 9.884H210.159Z" fill="#1B1B1B"/>
<path d="M64.4173 17.012C64.4173 18.692 63.9013 20.048 62.8693 21.08C61.8373 22.088 60.4693 22.592 58.7653 22.592C57.0373 22.592 55.6573 22.088 54.6253 21.08C53.6173 20.048 53.1133 18.692 53.1133 17.012C53.1133 15.332 53.6173 13.988 54.6253 12.98C55.6573 11.972 57.0373 11.468 58.7653 11.468C60.4693 11.468 61.8373 11.972 62.8693 12.98C63.9013 13.988 64.4173 15.332 64.4173 17.012Z" fill="#FB9400"/>
</svg>
